PathFileType	4	(X/Y/Z)	C:/Users/beibeiliu/ov580/test_trc/User1\sequence.12_training_dense_left.trc
DataRate	CameraRate	NumFrames	NumMarkers	Units	OrigDataRate	OrigDataStartFrame	OrigNumFrames
120	120	16	19	mm	120	115	304
Frame#	Time	ThumbCMC			ThumbMCP			ThumbIP			ThumbTip			IndexMCP			IndexPIP			IndexTip			MiddleMCP			MiddlePIP			MiddleTip			RingMCP			RingPIP			RingTip			PinkyMCP			PinkyPIP			PinkyTip			BackHand1			BackHand2			BackHand3	
		X0	Y0	Z0	X1	Y1	Z1	X2	Y2	Z2	X3	Y3	Z3	X4	Y4	Z4	X5	Y5	Z5	X6	Y6	Z6	X7	Y7	Z7	X8	Y8	Z8	X9	Y9	Z9	X10	Y10	Z10	X11	Y11	Z11	X12	Y12	Z12	X13	Y13	Z13	X14	Y14	Z14	X15	Y15	Z15	X16	Y16	Z16	X17	Y17	Z17	X18	Y18	Z18	
114	0.95	-164.614	114.925	8.00609	-141.026	105.305	-16.8871	-126.387	101.803	-38.5829	-113.128	91.9744	-54.6016	-204.039	109.201	-69.5756	-209.983	99.2752	-99.6077	-211.07	79.4305	-118.916	-233.398	94.823	-66.6998	-243.436	78.7872	-97.5241	-238.871	59.2106	-118.422	-249.081	73.3599	-56.2155	-252.31	60.5742	-80.1825	-244.718	38.2117	-99.3665	-248.298	53.3538	-27.5182	-255.847	36.3382	-47.4159	-252.383	15.529	-67.2086	-231.469	91.348	-0.419573	-230.259	97.7281	27.5014	-207.09	116.962	3.98022	
115	0.958333	-164.086	110.555	5.06223	-140.941	99.9552	-10.5079	-121.683	95.57	-34.7935	-109.103	85.0776	-51.3433	-199.688	104.959	-69.5768	-206.001	95.2403	-101.085	-205.072	78.1137	-120.205	-234.276	90.1909	-66.9502	-242.819	74.6955	-97.331	-237.992	55.1073	-118.225	-243.802	74.7942	-53.9306	-252.263	56.6543	-84.7712	-244.741	35.1417	-99.9182	-252.833	50.498	-28.9794	-259.045	32.5282	-44.0294	-252.491	14.5909	-68.273	-232.317	90.8293	-4.21564	-228.135	101.379	26.5668	-200.977	116.509	-0.492269	
116	0.966667	-161.962	108.585	7.43392	-136.727	94.8463	-13.5804	-119.951	88.2745	-28.9983	-107.667	74.3961	-48.3315	-197.282	98.7281	-69.8878	-204.013	90.7202	-97.5659	-202.222	71.6179	-121.767	-231.2	88.6273	-66.619	-238.272	76.5503	-98.9644	-239.118	49.4914	-119.074	-245.087	72.3761	-53.9271	-251.936	56.3755	-84.1616	-249.481	32.4707	-98.8673	-252.511	50.7168	-30.5617	-261.554	32.7549	-42.6694	-258.66	11.8479	-63.9034	-230.455	94.7166	-7.13769	-231.297	102.415	25.6959	-200.641	116.421	0.247556	
117	0.975	-159.322	105.961	6.90757	-132.276	91.6436	-10.726	-119.255	81.8453	-26.248	-105.317	67.7225	-41.8395	-196.478	94.7688	-73.2708	-197.874	86.1053	-101.528	-198.663	65.3883	-122.836	-229.268	86.9427	-67.8007	-238.462	73.3452	-96.487	-239.171	48.4738	-117.9	-242.263	71.6982	-57.4738	-250.707	57.7986	-81.7698	-249.18	30.2438	-99.1601	-253.559	50.8074	-26.2355	-262.074	31.3209	-43.1375	-259.765	11.2155	-64.8304	-231.174	92.4514	-9.78155	-225.211	104.238	26.1736	-202.601	112.098	-2.85381	
118	0.983333	-161.925	103.067	4.42531	-134.256	87.7366	-10.6192	-120.273	76.5352	-26.8486	-99.6668	63.6572	-37.7633	-192.111	93.4185	-73.8124	-194.756	82.4203	-102.819	-196.034	62.1143	-121.503	-225.574	85.5795	-70.2442	-232.873	73.5131	-99.0261	-235.527	45.6625	-121.247	-246.557	68.3131	-59.1997	-253.331	53.9678	-81.9969	-250.187	26.9156	-100.619	-254.274	50.3933	-27.6101	-263.575	32.6254	-42.1355	-259.961	11.6806	-64.2833	-233.276	92.8959	-7.44552	-228.872	104.619	24.7368	-198.104	112.962	-1.64002	
119	0.991667	-161.73	101.886	4.03569	-132.669	87.3026	-8.31799	-116.112	74.8476	-24.5414	-100.575	58.9489	-35.4338	-188.612	90.2857	-70.9562	-191.645	80.2039	-99.6773	-192.13	58.0834	-122.095	-227.036	82.3708	-71.673	-232.872	67.3735	-102.258	-233.451	40.9463	-123.941	-244.313	67.953	-59.1779	-249.17	51.7244	-84.7985	-249.159	26.1886	-97.8979	-254.14	49.1189	-29.6517	-262.403	29.3425	-42.9796	-256.304	8.48056	-63.625	-233.675	92.0925	-11.9142	-230.855	103.756	21.3881	-201.745	112.321	-2.05965	
120	1	-158.78	104.243	6.27514	-136.99	85.9106	-3.65327	-118.202	71.7376	-20.1658	-102.375	58.727	-28.3827	-189.678	86.5462	-74.4517	-191.087	75.1022	-98.2035	-188.941	56.2714	-120.185	-224.441	79.7201	-68.7281	-229.394	64.5982	-101.014	-231.314	39.467	-119.501	-239.359	67.8899	-56.2309	-247.523	50.1882	-81.9106	-247.018	20.4875	-97.8966	-252.737	47.114	-32.2532	-258.863	26.5938	-46.3623	-257.596	8.17742	-59.568	-232.698	92.0659	-7.98238	-230.191	104.097	21.6754	-197.481	111.482	-7.61436	
121	1.00833	-157.006	104.219	5.64979	-135.132	86.3118	-0.858772	-116.42	72.6337	-17.5427	-98.1705	55.5731	-29.7887	-189.819	83.0559	-73.2166	-190.357	71.5842	-97.9641	-189.876	47.733	-120.278	-223.869	76.2308	-73.5502	-225.853	64.0625	-98.8143	-231.343	36.2454	-117.956	-242.047	63.1373	-55.5918	-249.035	44.0713	-80.7354	-245.248	18.08	-94.4421	-252.72	47.5233	-27.2235	-259.9	26.3238	-40.8809	-255.533	3.57643	-55.5615	-230.193	90.7075	-12.0403	-229.634	105.83	22.3102	-198.632	112.73	-5.72002	
122	1.01667	-160.688	102.616	8.73769	-134.425	85.1609	-2.5778	-112.424	70.8501	-17.2969	-98.4997	54.0871	-27.4662	-187.386	81.1084	-74.1032	-187.744	69.2856	-96.0206	-185.294	49.1937	-115.841	-222.246	75.0097	-71.4721	-225.539	59.3275	-98.7924	-225.943	31.6727	-119.67	-241.214	60.5851	-57.5836	-247.128	40.9042	-81.2253	-243.497	15.9857	-91.4897	-254.386	43.266	-28.9978	-257.795	25.661	-40.3767	-250	2.7437	-56.3158	-232.013	89.1186	-12.2774	-229.381	107.891	20.5528	-195.577	111.316	-5.51916	
123	1.025	-155.706	103.629	5.64363	-131.344	85.0615	-4.07833	-115	69.9566	-17.6112	-97.5868	54.4722	-23.4313	-183.383	80.579	-71.377	-187.398	64.7472	-99.0031	-183.462	41.5905	-117.73	-219.572	72.9366	-71.8355	-227.304	54.2932	-97.0028	-224.843	28.7247	-117.082	-235.91	61.2758	-55.5127	-244.071	37.9679	-79.9074	-238.785	11.0003	-91.8017	-249.772	46.0779	-26.7937	-254.231	23.3039	-40.9061	-252.304	0.260178	-52.2812	-230.451	90.843	-7.96277	-226.22	107.528	17.3078	-198.729	111.346	-3.71978	
124	1.03333	-158.495	103.42	4.82507	-135.058	85.292	-3.32149	-112.84	72.2608	-17.8656	-98.9504	56.0173	-24.4372	-187.701	77.3046	-70.6547	-190.134	62.351	-95.441	-186.961	38.9581	-114.684	-218.838	70.7183	-70.8992	-227.632	49.2909	-96.8952	-225.54	23.3818	-114.69	-238.111	56.8762	-54.3649	-241.919	36.5942	-78.1135	-234.355	6.41151	-90.5811	-250.057	41.7926	-23.955	-252.207	18.2444	-38.9547	-246.814	-5.42012	-51.9749	-228.43	89.7481	-12.5983	-229.152	107.538	19.9816	-197.815	109.488	-3.9848	
125	1.04167	-160.336	106.192	3.50445	-134.215	90.8882	-2.21858	-114.948	77.02	-16.7887	-99.4965	60.5551	-26.9477	-187.974	77.505	-70.3903	-188.732	62.4475	-96.4622	-187.445	36.4902	-114.438	-222.139	65.3791	-73.4376	-227.9	44.5448	-95.4965	-226.047	15.1573	-112.006	-239.388	51.8743	-54.7186	-238.903	27.7603	-80.0807	-235.093	0.249582	-86.6766	-248.023	37.6597	-23.4892	-249.871	14.3273	-37.5708	-243.202	-9.19001	-48.0524	-232.844	85.9485	-11.119	-230.943	104.402	16.4725	-200.466	108.967	-6.40786	
126	1.05	-163.72	107.839	1.38815	-139.972	94.1148	-5.61337	-116.096	81.6601	-23.3712	-100.816	65.901	-31.7106	-191.718	74.3087	-76.3901	-191.116	58.5828	-97.9927	-188.911	30.0187	-114.695	-224.898	62.456	-67.7373	-226.466	43.5996	-94.249	-222.442	13.2365	-109.923	-240.452	43.7007	-57.0673	-238.722	21.8894	-75.4129	-230.402	-3.10398	-83.5498	-248.008	31.1963	-21.264	-245.913	11.7892	-34.8473	-235.704	-14.3366	-44.9301	-235.29	83.1011	-13.8596	-232.739	101.012	20.3781	-207.92	107.079	-10.1515	
127	1.05833	-170.596	111.053	-1.94747	-140.732	100.735	-9.30237	-123.636	87.1668	-25.7014	-101.373	72.5173	-38.8534	-197.942	69.3776	-75.838	-194.432	54.3539	-97.2969	-189.408	26.4519	-114.388	-225.746	55.5009	-73.2628	-227.256	32.1954	-94.0177	-219.904	1.20299	-107.268	-238.946	38.0865	-55.3533	-237.836	13.9291	-71.6719	-221.918	-12.3214	-82.5297	-245.487	23.4547	-19.0609	-243.064	0.713083	-27.7698	-227.922	-21.0042	-41.6218	-236.808	80.1494	-9.46128	-238.686	96.8175	15.0499	-214.507	103.691	-12.0083	
128	1.06667	-178.375	113.113	-4.16801	-148.159	105.379	-13.6824	-128.374	93.8911	-30.9203	-108.107	83.6676	-39.4755	-202.296	67.1076	-73.3402	-197.757	48.4099	-97.8253	-187.946	28.965	-111.366	-228.905	46.4531	-70.7052	-226.411	25.0587	-92.9825	-215.561	-5.89032	-101.805	-239.143	29.0577	-53.2964	-234.893	7.20275	-68.5709	-215.509	-19.2294	-76.5834	-240.634	19.9154	-17.6019	-235.753	-6.62171	-24.6375	-217.127	-26.3825	-38.9775	-240.408	71.7992	-10.3256	-243.778	92.7519	18.2985	-218.866	104.538	-10.8388	
129	1.075	-184.262	115.063	-7.12355	-154.914	108.394	-17.2779	-133.243	99.9545	-36.6235	-115.937	91.486	-42.943	-202.735	67.1473	-73.8564	-197.64	45.3653	-99.3954	-188.362	26.2947	-111.214	-229.813	41.0756	-66.0233	-223.221	17.7156	-90.3085	-209.939	-10.7166	-100.124	-236.539	22.9794	-49.6836	-230.313	-1.2886	-65.7026	-210.157	-23.2279	-71.7888	-237.776	12.7431	-13.7249	-228.504	-9.50409	-23.8089	-210.438	-29.6223	-36.2465	-242.613	68.0195	-9.28926	-245.624	89.5319	16.7348	-222.497	100.741	-14.1872	
